<svg xmlns="http://www.w3.org/2000/svg" width="753.7021" height="140.9362" viewBox="0 0 753.7021 140.9362">
  <g id="ba537986-c64b-4bf9-95fe-8a97762e5515" data-name="Layer 2">
    <g>
      <path d="M94.8228,105.3285H76.84L69.0132,88.4047h-41.04L20.04,105.3285H2.0581L42.0405,20.7093H54.8394ZM62.561,74.76,48.4927,44.2963,34.2134,74.76Z" fill="#f4c430"/>
      <path d="M160.9321,20.7093l-32.05,84.6192H113.8628l-32.79-84.6192H99.2661l22.001,59.4454,21.6836-59.4454Z" fill="#f4c430"/>
      <path d="M251.7925,63.0189a42.0354,42.0354,0,0,1-3.54,17.1358,43.6789,43.6789,0,0,1-9.667,13.9619,46.1207,46.1207,0,0,1-14.2627,9.3613,45.5191,45.5191,0,0,1-34.7061,0,45.9525,45.9525,0,0,1-14.3154-9.3613,43.8268,43.8268,0,0,1-9.667-13.9092,41.9241,41.9241,0,0,1-3.5381-17.1885,42.2944,42.2944,0,0,1,3.5381-17.2412,43.6956,43.6956,0,0,1,9.667-13.9619,45.545,45.545,0,0,1,31.6953-12.6934A44.725,44.725,0,0,1,248.2525,45.83,41.9334,41.9334,0,0,1,251.7925,63.0189Zm-16.3955,0a27.2073,27.2073,0,0,0-2.2256-10.9482,28.7742,28.7742,0,0,0-6.0938-8.99,29.3879,29.3879,0,0,0-9.06-6.1347,28.0949,28.0949,0,0,0-22.1475,0,29.3879,29.3879,0,0,0-9.06,6.1347,28.7759,28.7759,0,0,0-6.0938,8.99,27.9205,27.9205,0,0,0,0,21.8427,28.5705,28.5705,0,0,0,6.0938,9.044,29.3377,29.3377,0,0,0,9.06,6.1348,28.0949,28.0949,0,0,0,22.1475,0,29.3377,29.3377,0,0,0,9.06-6.1348,28.5689,28.5689,0,0,0,6.0938-9.044A27.31,27.31,0,0,0,235.397,63.0189Z" fill="#f4c430"/>
    </g>
    <g>
      <path d="M346.7349,90.097a47.0366,47.0366,0,0,1-15.3907,12.27,43.7559,43.7559,0,0,1-19.9384,4.5488,45.8348,45.8348,0,0,1-32.02-12.7988A43.7766,43.7766,0,0,1,269.76,80.2074a42.1351,42.1351,0,0,1-3.52-17.1885A42.1416,42.1416,0,0,1,269.76,45.83a44.0657,44.0657,0,0,1,23.9814-23.3232,46.09,46.09,0,0,1,17.6641-3.3848A43.7669,43.7669,0,0,1,331.3442,23.67,46.1638,46.1638,0,0,1,346.4175,35.517L335.0991,47.1527a29.73,29.73,0,0,0-10.1015-9.0439,28.5555,28.5555,0,0,0-24.751-1.1631,29.8072,29.8072,0,0,0-9.1494,6.1347,29.0408,29.0408,0,0,0-6.1875,8.99,27.2316,27.2316,0,0,0,0,21.79,29.0108,29.0108,0,0,0,6.1875,8.9912,29.772,29.772,0,0,0,9.1494,6.1348A27.6952,27.6952,0,0,0,311.4058,91.26a26.8247,26.8247,0,0,0,13.8564-3.5429,31.4687,31.4687,0,0,0,10.0488-9.3614Z"/>
      <path d="M416.3345,74.76a31.7589,31.7589,0,0,1-2.5391,12.7451A31.059,31.059,0,0,1,406.814,97.66a33.3264,33.3264,0,0,1-23.1641,9.2559,32.48,32.48,0,0,1-12.6933-2.4863,32.8434,32.8434,0,0,1-10.3653-6.8223A31.65,31.65,0,0,1,351.0718,74.76a30.6779,30.6779,0,0,1,2.5908-12.5351,33.0269,33.0269,0,0,1,7.0342-10.26A32.554,32.554,0,0,1,383.65,42.6039,32.8806,32.8806,0,0,1,396.396,45.09,33.2271,33.2271,0,0,1,406.814,51.86a30.9279,30.9279,0,0,1,6.9814,10.2071A31.8862,31.8862,0,0,1,416.3345,74.76Zm-15.2315,0a19.22,19.22,0,0,0-5.1152-13.2226,17.1835,17.1835,0,0,0-5.5371-3.9659,16.666,16.666,0,0,0-13.4981,0,17.18,17.18,0,0,0-5.5361,3.9659,19.046,19.046,0,0,0-3.7431,5.9238,20.1224,20.1224,0,0,0,0,14.5967,19.0252,19.0252,0,0,0,3.7431,5.9238,17.1651,17.1651,0,0,0,5.5361,3.9658,16.6553,16.6553,0,0,0,13.4981,0,17.1681,17.1681,0,0,0,5.5371-3.9658A19.22,19.22,0,0,0,401.103,74.76Z"/>
      <path d="M481.49,105.3285H466.2583V68.8363a15.248,15.248,0,0,0-1.01-5.7647,11.8141,11.8141,0,0,0-2.7089-4.125,10.9174,10.9174,0,0,0-3.877-2.4326,13.0767,13.0767,0,0,0-4.5137-.7939,20.3942,20.3942,0,0,0-6.9052,1.2168,17.2761,17.2761,0,0,0-6.1592,3.86v44.5313H425.853V44.1908h15.2315L441.19,48.74a16.3767,16.3767,0,0,1,3.3847-2.5391,26.5,26.5,0,0,1,4.1787-1.957,27.5947,27.5947,0,0,1,4.4424-1.2158,24.0455,24.0455,0,0,1,4.39-.4238,27.1628,27.1628,0,0,1,8.9375,1.4814,21.525,21.525,0,0,1,7.6162,4.5479,22.0183,22.0183,0,0,1,5.3408,7.9336,30.1184,30.1184,0,0,1,2.01,11.5293Z"/>
      <path d="M537.9722,88.1927a15.4517,15.4517,0,0,1-2.12,8.0918,19.234,19.234,0,0,1-5.5137,5.9239,25.3237,25.3237,0,0,1-7.6318,3.5957,30.2949,30.2949,0,0,1-8.3741,1.2168,31.603,31.603,0,0,1-12.8818-2.5918,26.7689,26.7689,0,0,1-10.3359-8.3028l9.2021-9.3086a20.5712,20.5712,0,0,0,6.3467,5.4473,15.892,15.892,0,0,0,7.7217,1.957A12.1708,12.1708,0,0,0,520.3609,92.9a4.27,4.27,0,0,0,2.38-3.9659q0-2.7495-3.3847-4.6015a49.7939,49.7939,0,0,0-9.52-3.6494,45.1083,45.1083,0,0,1-6.98-2.6973,25.6267,25.6267,0,0,1-6.0293-4.0195,19.0423,19.0423,0,0,1-4.2315-5.4473,15.2067,15.2067,0,0,1-1.5859-7.0869,15.5455,15.5455,0,0,1,2.0674-7.9854,18.8753,18.8753,0,0,1,5.4052-5.9238,25.6083,25.6083,0,0,1,7.5811-3.6494,29.8115,29.8115,0,0,1,8.5879-1.2695A28.5755,28.5755,0,0,1,537.5493,53.182l-9.0967,9.2021a20.9055,20.9055,0,0,0-6.0292-5.1826,14.8449,14.8449,0,0,0-7.4034-1.9043,12.44,12.44,0,0,0-2.9091.37,12.6135,12.6135,0,0,0-2.8565,1.0577,6.3792,6.3792,0,0,0-2.168,1.7988,3.9922,3.9922,0,0,0-.8457,2.4853q0,2.4346,3.2256,4.23a47.73,47.73,0,0,0,9.2549,3.5967,42.7906,42.7906,0,0,1,7.4043,2.9619,28.9071,28.9071,0,0,1,6.1357,4.1777,18.5724,18.5724,0,0,1,4.1778,5.3946A14.8446,14.8446,0,0,1,537.9722,88.1927Z"/>
      <path d="M601.5415,105.3285H586.31v-4.6543a15.9943,15.9943,0,0,1-3.4375,2.5918,27.6893,27.6893,0,0,1-8.5684,3.12,23.5531,23.5531,0,0,1-4.2832.4228,27.1853,27.1853,0,0,1-8.9385-1.48,20.9394,20.9394,0,0,1-7.5625-4.5479,21.7941,21.7941,0,0,1-5.2363-7.9336,30.7967,30.7967,0,0,1-1.9561-11.5293V44.1908h15.2315V80.5775a15.2788,15.2788,0,0,0,1.0049,5.7647,12.19,12.19,0,0,0,2.6435,4.125A10.336,10.336,0,0,0,569.0161,92.9a12.9655,12.9655,0,0,0,4.4951.7939A18.0446,18.0446,0,0,0,586.31,88.6166V44.1908h15.2314Z"/>
      <path d="M640.0415,105.0111a21.1847,21.1847,0,0,1-8.7793,1.9043,23.3936,23.3936,0,0,1-6.5049-.8994,14.2277,14.2277,0,0,1-5.4472-2.9092,14.0193,14.0193,0,0,1-3.7022-5.2354,19.7751,19.7751,0,0,1-1.375-7.7744V17.5355h15.5488v69.917q0,3.8087,1.5333,5.2363a5.1729,5.1729,0,0,0,3.6494,1.4278,9.1669,9.1669,0,0,0,5.0771-1.5869Z"/>
      <path d="M679.3911,103.9535a17.7448,17.7448,0,0,1-5.3945,2.2217,26.1624,26.1624,0,0,1-6.1357.74,27.2491,27.2491,0,0,1-9.0958-1.3223,13.0412,13.0412,0,0,1-5.9238-4.0722,17.3067,17.3067,0,0,1-3.2265-6.9815A43.3451,43.3451,0,0,1,648.61,84.597V57.8363h-8.0381V50.96a28.4846,28.4846,0,0,0,12.0049-9.0967q4.6011-6.0292,6.2939-15.6543h4.9717v17.876h15.4424v13.751H663.8423V85.6547a10.5436,10.5436,0,0,0,.5811,3.8076,5.9377,5.9377,0,0,0,1.5341,2.3271,5.17,5.17,0,0,0,2.168,1.1631,10.2105,10.2105,0,0,0,2.5918.3174,18.3179,18.3179,0,0,0,4.3369-.6348,10.8452,10.8452,0,0,0,4.3369-2.1152Z"/>
      <path d="M751.5288,74.6537q0,1.4824-.1592,3.0674T751,81H702.1314a21.1362,21.1362,0,0,0,2.38,5.0244,16.7058,16.7058,0,0,0,3.7559,4.125,17.7234,17.7234,0,0,0,5.0234,2.75,18.1968,18.1968,0,0,0,6.1885,1.0049,25.0756,25.0756,0,0,0,8.25-1.4278,20.2372,20.2372,0,0,0,6.876-3.86l9.625,9.625a42.8027,42.8027,0,0,1-12.4287,6.7168,41.7423,41.7423,0,0,1-12.8516,1.957,32.9009,32.9009,0,0,1-23.2168-9.4141,32.0755,32.0755,0,0,1-6.9287-10.207,32.2208,32.2208,0,0,1,0-25.0693,31.6905,31.6905,0,0,1,6.9815-10.2071,33.668,33.668,0,0,1,10.3652-6.875,31.876,31.876,0,0,1,12.6933-2.539,32.9058,32.9058,0,0,1,12.375,2.38,33.66,33.66,0,0,1,10.4717,6.6113,30.9153,30.9153,0,0,1,9.8379,23.0586Zm-15.9726-5.9229a18.3287,18.3287,0,0,0-6.3995-9.3613,16.6372,16.6372,0,0,0-10.4179-3.543A16.268,16.268,0,0,0,708.478,59.37a18.4464,18.4464,0,0,0-6.3466,9.3613Z"/>
    </g>
  </g>
</svg>
